<?xml version="1.0" standalone="no"?><!-- Created with ZXing.Net (http://zxingnet.codeplex.com/) --><!DOCTYPE svg PUBLIC "-//W3C//DTD SVG 1.1//EN" "http://www.w3.org/Graphics/SVG/1.1/DTD/svg11.dtd"><svg xmlns="http://www.w3.org/2000/svg" version="1.2" baseProfile="tiny" shape-rendering="crispEdges" viewBox="0 0 200 200" viewport-fill="rgb(255,255,255)" viewport-fill-opacity="1" fill="rgb(0,0,0)" fill-opacity="1" style="background-color:rgb(255,255,255);background-color:rgba(255, 255, 255, 1);"><rect x="34" y="34" width="4" height="28"/><rect x="34" y="66" width="12" height="8"/><rect x="34" y="78" width="4" height="8"/><rect x="34" y="90" width="12" height="8"/><rect x="34" y="102" width="4" height="8"/><rect x="34" y="114" width="4" height="20"/><rect x="34" y="138" width="4" height="28"/><rect x="38" y="34" width="24" height="4"/><rect x="38" y="58" width="24" height="4"/><rect x="38" y="74" width="4" height="8"/><rect x="38" y="86" width="8" height="12"/><rect x="38" y="106" width="8" height="4"/><rect x="38" y="114" width="24" height="4"/><rect x="38" y="138" width="24" height="4"/><rect x="38" y="162" width="24" height="4"/><rect x="42" y="42" width="12" height="12"/><rect x="42" y="98" width="4" height="20"/><rect x="42" y="126" width="12" height="4"/><rect x="42" y="146" width="12" height="12"/><rect x="46" y="66" width="8" height="4"/><rect x="46" y="74" width="20" height="4"/><rect x="46" y="82" width="20" height="4"/><rect x="46" y="98" width="4" height="4"/><rect x="46" y="110" width="4" height="20"/><rect x="50" y="90" width="4" height="4"/><rect x="50" y="102" width="4" height="4"/><rect x="50" y="122" width="4" height="8"/><rect x="54" y="70" width="4" height="16"/><rect x="54" y="94" width="4" height="4"/><rect x="54" y="110" width="4" height="12"/><rect x="58" y="38" width="4" height="24"/><rect x="58" y="66" width="20" height="4"/><rect x="58" y="90" width="8" height="4"/><rect x="58" y="98" width="4" height="4"/><rect x="58" y="106" width="8" height="4"/><rect x="58" y="122" width="8" height="4"/><rect x="58" y="130" width="8" height="4"/><rect x="58" y="142" width="4" height="24"/><rect x="62" y="70" width="4" height="8"/><rect x="62" y="86" width="4" height="12"/><rect x="62" y="102" width="4" height="12"/><rect x="62" y="118" width="4" height="16"/><rect x="66" y="38" width="8" height="4"/><rect x="66" y="46" width="8" height="4"/><rect x="66" y="54" width="4" height="8"/><rect x="66" y="70" width="8" height="4"/><rect x="66" y="78" width="20" height="4"/><rect x="66" y="94" width="4" height="4"/><rect x="66" y="114" width="8" height="8"/><rect x="66" y="126" width="8" height="4"/><rect x="66" y="134" width="4" height="8"/><rect x="66" y="146" width="4" height="20"/><rect x="70" y="34" width="4" height="16"/><rect x="70" y="74" width="4" height="12"/><rect x="70" y="98" width="4" height="40"/><rect x="70" y="146" width="4" height="4"/><rect x="70" y="158" width="4" height="8"/><rect x="74" y="42" width="8" height="4"/><rect x="74" y="50" width="4" height="12"/><rect x="74" y="86" width="8" height="4"/><rect x="74" y="94" width="4" height="20"/><rect x="74" y="130" width="4" height="12"/><rect x="74" y="154" width="4" height="4"/><rect x="74" y="162" width="4" height="4"/><rect x="78" y="38" width="4" height="12"/><rect x="78" y="70" width="4" height="4"/><rect x="78" y="94" width="8" height="4"/><rect x="78" y="102" width="4" height="4"/><rect x="78" y="114" width="4" height="8"/><rect x="78" y="126" width="4" height="12"/><rect x="78" y="142" width="4" height="12"/><rect x="78" y="158" width="8" height="4"/><rect x="82" y="38" width="16" height="4"/><rect x="82" y="46" width="4" height="16"/><rect x="82" y="66" width="12" height="4"/><rect x="82" y="114" width="12" height="4"/><rect x="82" y="122" width="28" height="4"/><rect x="82" y="130" width="16" height="4"/><rect x="82" y="142" width="4" height="8"/><rect x="82" y="154" width="4" height="8"/><rect x="86" y="46" width="4" height="12"/><rect x="86" y="70" width="4" height="8"/><rect x="86" y="82" width="8" height="4"/><rect x="86" y="90" width="4" height="4"/><rect x="86" y="98" width="4" height="12"/><rect x="86" y="146" width="4" height="12"/><rect x="86" y="162" width="8" height="4"/><rect x="90" y="34" width="4" height="16"/><rect x="90" y="58" width="4" height="12"/><rect x="90" y="86" width="4" height="4"/><rect x="90" y="98" width="8" height="4"/><rect x="90" y="110" width="4" height="24"/><rect x="90" y="138" width="4" height="12"/><rect x="94" y="46" width="12" height="4"/><rect x="94" y="54" width="4" height="4"/><rect x="94" y="74" width="4" height="8"/><rect x="94" y="90" width="4" height="12"/><rect x="94" y="106" width="4" height="4"/><rect x="94" y="138" width="4" height="4"/><rect x="94" y="154" width="8" height="8"/><rect x="98" y="34" width="4" height="4"/><rect x="98" y="50" width="4" height="4"/><rect x="98" y="58" width="4" height="4"/><rect x="98" y="70" width="24" height="4"/><rect x="98" y="86" width="4" height="12"/><rect x="98" y="102" width="4" height="4"/><rect x="98" y="110" width="4" height="4"/><rect x="98" y="118" width="12" height="8"/><rect x="98" y="134" width="8" height="4"/><rect x="98" y="146" width="4" height="16"/><rect x="102" y="38" width="8" height="4"/><rect x="102" y="66" width="4" height="12"/><rect x="102" y="82" width="4" height="4"/><rect x="102" y="90" width="8" height="4"/><rect x="102" y="98" width="4" height="4"/><rect x="102" y="114" width="4" height="12"/><rect x="102" y="130" width="4" height="12"/><rect x="102" y="146" width="4" height="4"/><rect x="102" y="162" width="4" height="4"/><rect x="106" y="50" width="24" height="4"/><rect x="106" y="58" width="4" height="8"/><rect x="106" y="74" width="4" height="8"/><rect x="106" y="102" width="24" height="4"/><rect x="106" y="110" width="4" height="4"/><rect x="106" y="138" width="4" height="8"/><rect x="106" y="150" width="12" height="4"/><rect x="106" y="158" width="8" height="4"/><rect x="110" y="34" width="8" height="4"/><rect x="110" y="42" width="4" height="4"/><rect x="110" y="66" width="4" height="8"/><rect x="110" y="78" width="28" height="4"/><rect x="110" y="86" width="12" height="4"/><rect x="110" y="94" width="4" height="4"/><rect x="110" y="118" width="8" height="4"/><rect x="110" y="130" width="4" height="8"/><rect x="110" y="142" width="12" height="4"/><rect x="114" y="46" width="4" height="8"/><rect x="114" y="58" width="4" height="4"/><rect x="114" y="74" width="4" height="16"/><rect x="114" y="98" width="4" height="16"/><rect x="114" y="134" width="8" height="4"/><rect x="114" y="154" width="8" height="4"/><rect x="114" y="162" width="4" height="4"/><rect x="118" y="38" width="4" height="8"/><rect x="118" y="62" width="8" height="4"/><rect x="118" y="74" width="4" height="8"/><rect x="118" y="94" width="4" height="4"/><rect x="118" y="110" width="8" height="4"/><rect x="118" y="126" width="8" height="4"/><rect x="118" y="158" width="4" height="4"/><rect x="122" y="46" width="4" height="8"/><rect x="122" y="58" width="4" height="12"/><rect x="122" y="82" width="4" height="4"/><rect x="122" y="90" width="4" height="4"/><rect x="122" y="98" width="4" height="8"/><rect x="122" y="114" width="16" height="4"/><rect x="122" y="130" width="28" height="4"/><rect x="122" y="138" width="12" height="4"/><rect x="122" y="146" width="4" height="4"/><rect x="122" y="162" width="16" height="4"/><rect x="126" y="34" width="4" height="4"/><rect x="126" y="42" width="4" height="4"/><rect x="126" y="70" width="4" height="4"/><rect x="126" y="86" width="4" height="4"/><rect x="126" y="118" width="4" height="4"/><rect x="126" y="142" width="8" height="4"/><rect x="130" y="38" width="4" height="4"/><rect x="130" y="46" width="4" height="4"/><rect x="130" y="58" width="4" height="12"/><rect x="130" y="90" width="4" height="4"/><rect x="130" y="98" width="8" height="4"/><rect x="130" y="106" width="4" height="12"/><rect x="130" y="126" width="4" height="28"/><rect x="134" y="66" width="4" height="4"/><rect x="134" y="82" width="4" height="4"/><rect x="134" y="110" width="4" height="8"/><rect x="134" y="146" width="4" height="8"/><rect x="138" y="34" width="4" height="28"/><rect x="138" y="70" width="4" height="4"/><rect x="138" y="86" width="4" height="8"/><rect x="138" y="102" width="4" height="8"/><rect x="138" y="118" width="4" height="8"/><rect x="138" y="138" width="4" height="4"/><rect x="138" y="146" width="12" height="4"/><rect x="138" y="154" width="4" height="8"/><rect x="142" y="34" width="24" height="4"/><rect x="142" y="58" width="24" height="4"/><rect x="142" y="66" width="4" height="4"/><rect x="142" y="90" width="4" height="4"/><rect x="142" y="98" width="8" height="4"/><rect x="142" y="106" width="4" height="12"/><rect x="142" y="126" width="4" height="8"/><rect x="142" y="150" width="8" height="4"/><rect x="142" y="162" width="8" height="4"/><rect x="146" y="42" width="12" height="12"/><rect x="146" y="82" width="4" height="4"/><rect x="146" y="110" width="4" height="8"/><rect x="146" y="122" width="4" height="4"/><rect x="146" y="134" width="4" height="20"/><rect x="150" y="66" width="4" height="4"/><rect x="150" y="78" width="12" height="4"/><rect x="150" y="86" width="4" height="12"/><rect x="150" y="106" width="8" height="8"/><rect x="150" y="118" width="4" height="4"/><rect x="150" y="126" width="16" height="4"/><rect x="150" y="134" width="4" height="12"/><rect x="150" y="158" width="8" height="4"/><rect x="154" y="74" width="8" height="8"/><rect x="154" y="94" width="8" height="4"/><rect x="154" y="102" width="4" height="12"/><rect x="154" y="134" width="4" height="4"/><rect x="154" y="142" width="4" height="4"/><rect x="154" y="150" width="4" height="4"/><rect x="158" y="66" width="4" height="4"/><rect x="158" y="82" width="4" height="16"/><rect x="158" y="106" width="4" height="4"/><rect x="158" y="122" width="4" height="8"/><rect x="158" y="138" width="4" height="4"/><rect x="158" y="154" width="4" height="4"/><rect x="158" y="162" width="4" height="4"/><rect x="162" y="38" width="4" height="24"/><rect x="162" y="70" width="4" height="4"/><rect x="162" y="86" width="4" height="4"/><rect x="162" y="102" width="4" height="4"/><rect x="162" y="114" width="4" height="8"/><rect x="162" y="134" width="4" height="4"/><rect x="162" y="142" width="4" height="8"/></svg>