<?xml version="1.0" standalone="no"?><!-- Created with ZXing.Net (http://zxingnet.codeplex.com/) --><!DOCTYPE svg PUBLIC "-//W3C//DTD SVG 1.1//EN" "http://www.w3.org/Graphics/SVG/1.1/DTD/svg11.dtd"><svg xmlns="http://www.w3.org/2000/svg" version="1.2" baseProfile="tiny" shape-rendering="crispEdges" viewBox="0 0 200 200" viewport-fill="rgb(255,255,255)" viewport-fill-opacity="1" fill="rgb(0,0,0)" fill-opacity="1" style="background-color:rgb(255,255,255);background-color:rgba(255, 255, 255, 1);"><rect x="37" y="37" width="6" height="42"/><rect x="37" y="85" width="24" height="6"/><rect x="37" y="97" width="6" height="12"/><rect x="37" y="121" width="6" height="42"/><rect x="43" y="37" width="36" height="6"/><rect x="43" y="73" width="36" height="6"/><rect x="43" y="109" width="12" height="6"/><rect x="43" y="121" width="36" height="6"/><rect x="43" y="157" width="36" height="6"/><rect x="49" y="49" width="18" height="18"/><rect x="49" y="91" width="12" height="12"/><rect x="49" y="133" width="18" height="18"/><rect x="55" y="103" width="12" height="6"/><rect x="61" y="91" width="6" height="6"/><rect x="67" y="97" width="18" height="6"/><rect x="73" y="43" width="6" height="36"/><rect x="73" y="85" width="6" height="6"/><rect x="73" y="109" width="18" height="6"/><rect x="73" y="127" width="6" height="36"/><rect x="79" y="91" width="6" height="24"/><rect x="85" y="37" width="6" height="6"/><rect x="85" y="49" width="6" height="18"/><rect x="85" y="73" width="6" height="6"/><rect x="85" y="85" width="6" height="12"/><rect x="85" y="103" width="6" height="18"/><rect x="85" y="139" width="6" height="24"/><rect x="91" y="49" width="6" height="12"/><rect x="91" y="67" width="18" height="6"/><rect x="91" y="85" width="18" height="6"/><rect x="91" y="97" width="12" height="6"/><rect x="91" y="115" width="6" height="18"/><rect x="91" y="139" width="12" height="12"/><rect x="91" y="157" width="6" height="6"/><rect x="97" y="37" width="6" height="12"/><rect x="97" y="73" width="6" height="6"/><rect x="97" y="121" width="12" height="12"/><rect x="103" y="43" width="6" height="18"/><rect x="103" y="79" width="6" height="12"/><rect x="103" y="115" width="6" height="24"/><rect x="103" y="145" width="12" height="6"/><rect x="109" y="37" width="6" height="6"/><rect x="109" y="55" width="6" height="12"/><rect x="109" y="73" width="6" height="6"/><rect x="109" y="115" width="18" height="6"/><rect x="109" y="139" width="6" height="12"/><rect x="109" y="157" width="18" height="6"/><rect x="115" y="85" width="6" height="12"/><rect x="115" y="127" width="6" height="6"/><rect x="115" y="139" width="6" height="6"/><rect x="115" y="151" width="12" height="12"/><rect x="121" y="37" width="6" height="42"/><rect x="121" y="91" width="18" height="6"/><rect x="121" y="109" width="6" height="18"/><rect x="121" y="145" width="6" height="18"/><rect x="127" y="37" width="36" height="6"/><rect x="127" y="73" width="36" height="6"/><rect x="127" y="97" width="6" height="18"/><rect x="127" y="121" width="18" height="6"/><rect x="127" y="133" width="12" height="6"/><rect x="133" y="49" width="18" height="18"/><rect x="133" y="85" width="6" height="12"/><rect x="133" y="103" width="12" height="6"/><rect x="133" y="115" width="6" height="24"/><rect x="139" y="85" width="12" height="6"/><rect x="139" y="97" width="6" height="12"/><rect x="139" y="115" width="6" height="18"/><rect x="139" y="139" width="6" height="12"/><rect x="145" y="127" width="12" height="12"/><rect x="145" y="145" width="6" height="6"/><rect x="145" y="157" width="6" height="6"/><rect x="151" y="97" width="12" height="6"/><rect x="151" y="139" width="6" height="6"/><rect x="157" y="43" width="6" height="36"/><rect x="157" y="85" width="6" height="24"/><rect x="157" y="127" width="6" height="6"/><rect x="157" y="151" width="6" height="6"/></svg>